<?xml version="1.0" standalone="no"?>
<!DOCTYPE svg PUBLIC "-//W3C//DTD SVG 20010904//EN"
 "http://www.w3.org/TR/2001/REC-SVG-20010904/DTD/svg10.dtd">
<svg version="1.0" xmlns="http://www.w3.org/2000/svg"
 width="1100.000000pt" height="1100.000000pt" viewBox="0 0 1100.000000 1100.000000"
 preserveAspectRatio="xMidYMid meet">
<metadata>
Created by potrace 1.14, written by Peter Selinger 2001-2017
</metadata>
<g transform="translate(0.000000,1100.000000) scale(0.100000,-0.100000)"
fill="#000000" stroke="none">
<path d="M2320 10994 c-229 -23 -397 -55 -568 -109 -936 -297 -1603 -1097
-1734 -2080 -19 -145 -19 -6475 0 -6610 59 -415 185 -751 407 -1085 398 -599
1039 -994 1770 -1092 145 -19 6475 -19 6610 0 415 59 751 185 1085 407 599
398 994 1039 1092 1770 19 145 19 6475 0 6610 -96 677 -409 1234 -927 1650
-281 226 -667 411 -1010 485 -274 59 -4 54 -3495 56 -1757 0 -3211 -1 -3230
-2z m1578 -2292 l44 -7 33 -110 c53 -175 124 -368 253 -685 149 -368 135 -335
462 -1055 348 -769 561 -1218 571 -1208 4 4 40 100 79 213 40 113 121 336 180
495 121 324 160 445 226 709 51 204 164 739 227 1074 l41 222 293 0 c323 0
871 15 1088 30 77 5 248 15 380 21 132 6 432 21 668 33 235 12 427 21 427 20
0 -1 -43 -36 -95 -79 -212 -172 -399 -420 -439 -581 -23 -93 -35 -250 -51
-659 -53 -1357 -43 -2942 21 -3374 20 -136 36 -179 99 -276 170 -258 380 -482
658 -704 l109 -86 -79 -7 c-102 -9 -839 -37 -1308 -48 -203 -5 -460 -14 -570
-20 -110 -5 -371 -17 -580 -25 -209 -8 -442 -18 -519 -21 l-138 -7 82 98 c251
298 461 628 499 785 49 201 84 583 112 1200 13 305 22 1882 12 2113 l-8 179
-68 -116 c-99 -169 -222 -412 -335 -661 -176 -389 -270 -632 -451 -1166 -133
-393 -471 -1382 -493 -1444 -18 -49 -26 -51 -208 -56 l-143 -4 -47 220 c-182
843 -324 1236 -730 2015 -285 548 -374 716 -386 734 -12 17 -13 16 -18 -15 -8
-51 -54 -583 -71 -829 -26 -384 -35 -638 -35 -1020 0 -563 25 -879 81 -1019
54 -136 153 -304 298 -506 108 -151 181 -237 388 -452 l165 -173 -306 0 c-375
0 -926 -15 -1261 -35 -137 -8 -407 -24 -600 -35 -333 -19 -806 -54 -870 -65
-30 -5 -30 -5 -9 13 12 9 64 46 115 82 109 75 279 241 362 352 81 108 135 214
152 295 32 160 87 916 105 1458 11 322 34 1066 50 1595 5 179 12 676 16 1105
l6 780 -27 89 c-72 246 -180 412 -353 548 -37 28 -71 56 -77 61 -6 6 73 8 215
5 124 -3 378 -2 565 2 470 9 1141 10 1193 2z"/>
</g>
</svg>
